<svg width="1800" height="1100" viewBox="0 0 1800 1100" fill="none" xmlns="http://www.w3.org/2000/svg">
<defs>
<linearGradient id="bg" x1="0" y1="0" x2="1" y2="1"><stop stop-color="#0B3C6F"/><stop offset=".55" stop-color="#113F70"/><stop offset="1" stop-color="#2E74B5"/></linearGradient>
<linearGradient id="glass" x1="0" y1="0" x2="1" y2="1"><stop stop-color="#fff" stop-opacity=".18"/><stop offset="1" stop-color="#fff" stop-opacity=".04"/></linearGradient>
<filter id="shadow"><feDropShadow dx="0" dy="28" stdDeviation="28" flood-color="#001D3D" flood-opacity=".26"/></filter>
</defs>
<rect width="1800" height="1100" fill="url(#bg)"/>
<circle cx="1390" cy="235" r="420" fill="#FFFFFF" opacity=".06"/>
<circle cx="1240" cy="850" r="500" fill="#FFFFFF" opacity=".045"/>
<path d="M-80 840C280 760 460 790 720 682C980 574 1090 490 1400 515C1580 530 1690 590 1900 510" stroke="#FFFFFF" stroke-opacity=".15" stroke-width="34"/>
<path d="M-50 900C270 820 540 815 790 735C990 672 1210 625 1500 650C1640 662 1748 700 1900 662" stroke="#FFFFFF" stroke-opacity=".16" stroke-width="10" stroke-dasharray="34 30"/>
<g filter="url(#shadow)">
<rect x="990" y="410" width="530" height="310" rx="44" fill="url(#glass)" stroke="#fff" stroke-opacity=".28"/>
<rect x="1050" y="465" width="150" height="90" rx="24" fill="#fff" fill-opacity=".15" stroke="#fff" stroke-opacity=".28"/>
<rect x="1228" y="465" width="220" height="90" rx="24" fill="#fff" fill-opacity=".15" stroke="#fff" stroke-opacity=".28"/>
<rect x="1050" y="585" width="190" height="90" rx="24" fill="#fff" fill-opacity=".15" stroke="#fff" stroke-opacity=".28"/>
<rect x="1268" y="585" width="180" height="90" rx="24" fill="#fff" fill-opacity=".15" stroke="#fff" stroke-opacity=".28"/>
</g>
<g transform="translate(1040 805)" opacity=".26">
<rect x="0" y="42" width="360" height="96" rx="22" fill="#FFFFFF"/>
<rect x="35" y="69" width="56" height="42" rx="8" fill="#0B3C6F"/>
<rect x="130" y="75" width="130" height="12" rx="6" fill="#0B3C6F"/>
<rect x="130" y="98" width="84" height="12" rx="6" fill="#0B3C6F"/>
<circle cx="74" cy="160" r="28" fill="#FFFFFF"/>
<circle cx="278" cy="160" r="28" fill="#FFFFFF"/>
<rect x="270" y="0" width="110" height="138" rx="18" fill="#FFFFFF"/>
<path d="M304 45H346M325 24V66" stroke="#0B3C6F" stroke-width="13" stroke-linecap="round"/>
</g>
<g opacity=".18">
<rect x="1120" y="170" width="110" height="110" rx="22" fill="#fff"/>
<rect x="1260" y="150" width="80" height="80" rx="18" fill="#fff"/>
<rect x="1380" y="195" width="120" height="120" rx="24" fill="#fff"/>
<rect x="1530" y="145" width="90" height="90" rx="18" fill="#fff"/>
</g>
</svg>