<svg xmlns="http://www.w3.org/2000/svg" width="1600" height="900" viewBox="0 0 1600 900">
<defs>
<linearGradient id="bg" x1="0" x2="1"><stop stop-color="#0B3C6F"/><stop offset="1" stop-color="#2E74B5"/></linearGradient>
<filter id="shadow"><feDropShadow dx="0" dy="24" stdDeviation="18" flood-color="#001b35" flood-opacity=".22"/></filter>
</defs>
<rect width="1600" height="900" fill="url(#bg)"/>
<g opacity=".15">
<circle cx="1200" cy="200" r="300" fill="#fff"/>
<circle cx="1350" cy="720" r="260" fill="#fff"/>
<path d="M-80 740C160 620 350 650 560 560C780 465 900 390 1120 425C1325 455 1450 560 1710 300" stroke="#fff" stroke-width="22" fill="none"/>
<path d="M-80 800C160 680 350 710 560 620C780 525 900 450 1120 485C1325 515 1450 620 1710 360" stroke="#fff" stroke-width="7" stroke-dasharray="22 24" fill="none"/>
</g>
<g transform="translate(970 180)" filter="url(#shadow)" opacity=".92">
<rect x="40" y="260" width="420" height="210" rx="42" fill="#fff"/>
<rect x="90" y="325" width="85" height="85" rx="18" fill="#2E74B5"/>
<path d="M132.5 342v50M107 367h51" stroke="#fff" stroke-width="14" stroke-linecap="round"/>
<rect x="215" y="337" width="170" height="18" rx="9" fill="#0B3C6F" opacity=".7"/>
<rect x="215" y="380" width="130" height="18" rx="9" fill="#0B3C6F" opacity=".4"/>
<rect x="250" y="125" width="300" height="180" rx="38" fill="#fff"/>
<rect x="300" y="180" width="72" height="72" rx="16" fill="#2E74B5"/>
<path d="M336 194v44M314 216h44" stroke="#fff" stroke-width="12" stroke-linecap="round"/>
<rect x="400" y="190" width="105" height="16" rx="8" fill="#0B3C6F" opacity=".6"/>
<rect x="400" y="226" width="78" height="16" rx="8" fill="#0B3C6F" opacity=".38"/>
</g>
</svg>