<svg xmlns="http://www.w3.org/2000/svg" width="1500" height="920" viewBox="0 0 1500 920">
<defs>
<linearGradient id="bg" x1="0" x2="1"><stop stop-color="#F4F6F8"/><stop offset="1" stop-color="#FFFFFF"/></linearGradient>
<linearGradient id="navy" x1="0" x2="1"><stop stop-color="#0B3C6F"/><stop offset="1" stop-color="#2E74B5"/></linearGradient>
<filter id="shadow"><feDropShadow dx="0" dy="24" stdDeviation="18" flood-color="#0B3C6F" flood-opacity=".18"/></filter>
</defs>
<rect width="1500" height="920" fill="url(#bg)"/>
<g opacity=".22">
<rect x="910" y="80" width="180" height="580" rx="24" fill="#B8D2E8"/>
<rect x="1130" y="130" width="250" height="530" rx="24" fill="#C8DBEA"/>
<rect x="945" y="135" width="46" height="46" fill="white"/><rect x="1020" y="135" width="46" height="46" fill="white"/>
<rect x="945" y="215" width="46" height="46" fill="white"/><rect x="1020" y="215" width="46" height="46" fill="white"/>
<rect x="1180" y="190" width="50" height="50" fill="white"/><rect x="1260" y="190" width="50" height="50" fill="white"/>
<rect x="1180" y="280" width="50" height="50" fill="white"/><rect x="1260" y="280" width="50" height="50" fill="white"/>
</g>
<g transform="translate(760 175)" filter="url(#shadow)">
<circle cx="230" cy="95" r="72" fill="#C8A181"/>
<path d="M163 89c28 18 80 18 135 0v-42c-48-34-94-32-135 0z" fill="#0B3C6F"/>
<rect x="150" y="160" width="165" height="235" rx="42" fill="#0B3C6F"/>
<rect x="178" y="205" width="112" height="62" rx="12" fill="#F4F6F8"/>
<path d="M162 230 70 345" stroke="#C8A181" stroke-width="46" stroke-linecap="round"/>
<path d="M315 232 415 350" stroke="#C8A181" stroke-width="46" stroke-linecap="round"/>
<rect x="160" y="378" width="58" height="160" rx="28" fill="#1C558A"/>
<rect x="250" y="378" width="58" height="160" rx="28" fill="#1C558A"/>
</g>
<g transform="translate(580 540)" filter="url(#shadow)">
<rect width="365" height="185" rx="32" fill="white"/>
<rect x="36" y="46" width="78" height="78" rx="17" fill="#2E74B5"/>
<path d="M75 61v48M51 85h48" stroke="white" stroke-width="12" stroke-linecap="round"/>
<rect x="140" y="58" width="140" height="16" rx="8" fill="#0B3C6F" opacity=".7"/>
<rect x="140" y="95" width="105" height="16" rx="8" fill="#0B3C6F" opacity=".42"/>
<text x="36" y="155" font-family="Arial" font-size="22" font-weight="900" fill="#0B3C6F">3D MEDICAL LOGISTICS</text>
</g>
<g transform="translate(940 515)" filter="url(#shadow)">
<rect width="410" height="205" rx="34" fill="white"/>
<rect x="40" y="58" width="82" height="82" rx="18" fill="#2E74B5"/>
<path d="M81 73v50M56 98h50" stroke="white" stroke-width="12" stroke-linecap="round"/>
<rect x="158" y="65" width="165" height="16" rx="8" fill="#0B3C6F" opacity=".7"/>
<rect x="158" y="104" width="122" height="16" rx="8" fill="#0B3C6F" opacity=".42"/>
<text x="40" y="168" font-family="Arial" font-size="20" font-weight="900" fill="#0B3C6F">SECURE MEDICAL SUPPLY TOTE</text>
</g>
<path d="M100 760C300 620 500 720 700 575C840 474 950 450 1165 505" stroke="#2E74B5" stroke-width="4" stroke-dasharray="12 16" opacity=".35"/>
</svg>