<svg xmlns="http://www.w3.org/2000/svg" width="1600" height="1000" viewBox="0 0 1600 1000">
  <defs>
    <linearGradient id="g" x1="0" y1="0" x2="1" y2="1">
      <stop offset="0" stop-color="#0b1d35"/>
      <stop offset="0.55" stop-color="#12365f"/>
      <stop offset="1" stop-color="#071529"/>
    </linearGradient>
    <radialGradient id="glow" cx="72%" cy="30%" r="45%">
      <stop offset="0" stop-color="#6b8fb5" stop-opacity=".42"/>
      <stop offset="1" stop-color="#0b1d35" stop-opacity="0"/>
    </radialGradient>
    <filter id="soft" x="-20%" y="-20%" width="140%" height="140%"><feGaussianBlur stdDeviation="10"/></filter>
  </defs>
  <rect width="1600" height="1000" fill="url(#g)"/>
  <rect width="1600" height="1000" fill="url(#glow)"/>
  <g opacity=".22" stroke="#d8e1ea" stroke-width="2" fill="none">
    <path d="M965 190h320v240H965z"/>
    <path d="M995 220h85v60h-85zm115 0h85v60h-85zm115 0h40v60h-40M995 315h270M995 360h270"/>
    <path d="M760 600h540M825 545h330l85 55"/>
    <path d="M820 600v120h420V600"/>
    <path d="M890 645h95v75h-95zm130 0h95v75h-95"/>
  </g>
  <g opacity=".16" fill="#fff" filter="url(#soft)">
    <circle cx="1260" cy="220" r="110"/>
    <circle cx="1050" cy="720" r="80"/>
  </g>
  <g opacity=".18" stroke="#fff" stroke-width="7" fill="none">
    <path d="M-20 845C315 700 495 700 755 795s472 110 865-70"/>
    <path d="M-20 900C315 755 495 755 755 850s472 110 865-70"/>
  </g>
  <g opacity=".12" fill="#d8e1ea">
    <rect x="1160" y="530" width="160" height="95" rx="16"/>
    <rect x="1020" y="555" width="110" height="70" rx="12"/>
    <rect x="875" y="565" width="110" height="60" rx="12"/>
  </g>
</svg>
