<svg width="1800" height="1300" viewBox="0 0 1800 1300" fill="none" xmlns="http://www.w3.org/2000/svg">
<defs>
  <linearGradient id="bg" x1="0" y1="0" x2="1800" y2="1300" gradientUnits="userSpaceOnUse">
    <stop stop-color="#F8FAFC"/>
    <stop offset=".52" stop-color="#DDEAF6"/>
    <stop offset="1" stop-color="#B9D3EA"/>
  </linearGradient>
  <linearGradient id="navy" x1="0" y1="0" x2="1" y2="1">
    <stop stop-color="#0B3C6F"/>
    <stop offset="1" stop-color="#06284C"/>
  </linearGradient>
  <filter id="shadow" x="-20%" y="-20%" width="140%" height="150%">
    <feDropShadow dx="0" dy="24" stdDeviation="22" flood-color="#0B3C6F" flood-opacity=".22"/>
  </filter>
</defs>
<rect width="1800" height="1300" fill="url(#bg)"/>
<path d="M0 922C290 808 540 780 870 826c365 50 585-15 930-156v630H0V922Z" fill="#EAF1F8"/>
<g opacity=".32">
  <rect x="88" y="185" width="260" height="735" rx="22" fill="#FFFFFF"/>
  <rect x="402" y="90" width="420" height="830" rx="28" fill="#FFFFFF"/>
  <rect x="874" y="270" width="250" height="650" rx="22" fill="#FFFFFF"/>
  <rect x="1210" y="170" width="390" height="750" rx="28" fill="#FFFFFF"/>
  <g fill="#0B3C6F" opacity=".25">
    <rect x="465" y="165" width="54" height="54" rx="6"/><rect x="565" y="165" width="54" height="54" rx="6"/><rect x="665" y="165" width="54" height="54" rx="6"/>
    <rect x="465" y="270" width="54" height="54" rx="6"/><rect x="565" y="270" width="54" height="54" rx="6"/><rect x="665" y="270" width="54" height="54" rx="6"/>
    <rect x="1285" y="250" width="58" height="58" rx="7"/><rect x="1395" y="250" width="58" height="58" rx="7"/>
    <rect x="1285" y="360" width="58" height="58" rx="7"/><rect x="1395" y="360" width="58" height="58" rx="7"/>
  </g>
</g>
<g filter="url(#shadow)">
  <rect x="1050" y="674" width="570" height="260" rx="34" fill="white"/>
  <rect x="1098" y="715" width="188" height="152" rx="18" fill="#E9F0F7"/>
  <rect x="1320" y="715" width="250" height="152" rx="18" fill="#E9F0F7"/>
  <path d="M1171 758h42v-42h46v42h42v46h-42v42h-46v-42h-42v-46Z" fill="#2E74B5"/>
  <path d="M1363 765h164" stroke="#0B3C6F" stroke-width="12" stroke-linecap="round"/>
  <path d="M1363 814h124" stroke="#0B3C6F" stroke-width="12" stroke-linecap="round" opacity=".65"/>
  <text x="1100" y="910" font-family="Arial, Helvetica, sans-serif" font-size="30" font-weight="800" fill="#0B3C6F">SECURE MEDICAL SUPPLY TOTES</text>
</g>

<!-- professional healthcare logistics courier illustration -->
<g filter="url(#shadow)" transform="translate(425 338)">
  <ellipse cx="340" cy="658" rx="285" ry="50" fill="#0B3C6F" opacity=".18"/>
  <path d="M297 88c0-53 43-96 96-96s96 43 96 96-43 96-96 96-96-43-96-96Z" fill="#D4B199"/>
  <path d="M300 88c18-66 120-96 177-26 8 10 13 26 14 44-38-26-76-34-123-18-22 7-45 8-68 0Z" fill="#1F2937"/>
  <path d="M278 228c14-44 57-73 103-73h30c48 0 91 31 105 77l73 240H205l73-244Z" fill="url(#navy)"/>
  <path d="M308 245h172l29 108H282l26-108Z" fill="#FFFFFF" opacity=".12"/>
  <path d="M218 371c-44 54-75 106-101 178-9 26 4 55 30 65 26 11 55-2 67-28 21-52 49-99 84-140l-80-75Z" fill="#D4B199"/>
  <path d="M556 372c42 50 78 105 111 166 13 25 44 35 69 22 25-13 35-44 22-69-38-76-83-145-138-204l-64 85Z" fill="#D4B199"/>
  <path d="M285 576h219l56 330H423l-35-210-38 210H213l72-330Z" fill="#152B45"/>
  <path d="M233 902h127c16 0 29 13 29 29v22H202v-20c0-17 14-31 31-31Z" fill="#0B3C6F"/>
  <path d="M418 902h127c16 0 29 13 29 29v22H387v-20c0-17 14-31 31-31Z" fill="#0B3C6F"/>
  <rect x="118" y="512" width="510" height="208" rx="28" fill="#FFFFFF"/>
  <rect x="153" y="555" width="170" height="92" rx="16" fill="#EAF1F8"/>
  <rect x="360" y="555" width="222" height="92" rx="16" fill="#EAF1F8"/>
  <path d="M196 575h35v-35h39v35h35v39h-35v35h-39v-35h-35v-39Z" fill="#2E74B5"/>
  <path d="M396 586h150" stroke="#0B3C6F" stroke-width="10" stroke-linecap="round"/>
  <path d="M396 626h105" stroke="#0B3C6F" stroke-width="10" stroke-linecap="round" opacity=".6"/>
  <text x="155" y="690" font-family="Arial, Helvetica, sans-serif" font-size="28" font-weight="800" fill="#0B3C6F">3D MEDICAL LOGISTICS</text>
</g>
<rect width="1800" height="1300" fill="url(#bg)" opacity=".05"/>
</svg>