<svg xmlns="http://www.w3.org/2000/svg" viewBox="0 0 1800 1050" preserveAspectRatio="xMidYMid slice">
  <defs>
    <linearGradient id="sky" x1="0" y1="0" x2="1" y2="1">
      <stop offset="0" stop-color="#eef3f8"/>
      <stop offset="0.45" stop-color="#c9d6e4"/>
      <stop offset="1" stop-color="#8ba1b9"/>
    </linearGradient>
    <linearGradient id="glass" x1="0" y1="0" x2="0" y2="1">
      <stop offset="0" stop-color="#ffffff" stop-opacity="0.7"/>
      <stop offset="1" stop-color="#9fb3c9" stop-opacity="0.25"/>
    </linearGradient>
    <linearGradient id="van" x1="0" y1="0" x2="1" y2="1">
      <stop offset="0" stop-color="#ffffff"/>
      <stop offset="1" stop-color="#dfe6ee"/>
    </linearGradient>
    <filter id="soft" x="-20%" y="-20%" width="140%" height="140%">
      <feDropShadow dx="0" dy="18" stdDeviation="22" flood-color="#071729" flood-opacity="0.35"/>
    </filter>
    <radialGradient id="sun" cx="72%" cy="19%" r="42%">
      <stop offset="0" stop-color="#ffffff" stop-opacity="0.95"/>
      <stop offset="1" stop-color="#ffffff" stop-opacity="0"/>
    </radialGradient>
  </defs>
  <rect width="1800" height="1050" fill="url(#sky)"/>
  <rect width="1800" height="1050" fill="url(#sun)"/>
  <g opacity="0.75">
    <rect x="930" y="130" width="620" height="480" rx="16" fill="#dce5ee"/>
    <rect x="965" y="175" width="118" height="175" fill="url(#glass)"/>
    <rect x="1112" y="175" width="118" height="175" fill="url(#glass)"/>
    <rect x="1259" y="175" width="118" height="175" fill="url(#glass)"/>
    <rect x="1406" y="175" width="98" height="175" fill="url(#glass)"/>
    <rect x="965" y="382" width="118" height="175" fill="url(#glass)"/>
    <rect x="1112" y="382" width="118" height="175" fill="url(#glass)"/>
    <rect x="1259" y="382" width="118" height="175" fill="url(#glass)"/>
    <rect x="1406" y="382" width="98" height="175" fill="url(#glass)"/>
    <rect x="890" y="610" width="735" height="70" fill="#bfcbd8"/>
  </g>
  <g opacity="0.55">
    <path d="M0 672 C210 615 408 625 598 676 C802 731 975 732 1178 688 C1400 641 1605 638 1800 693 L1800 1050 L0 1050 Z" fill="#778da3"/>
    <path d="M0 740 C218 705 448 720 690 782 C900 835 1127 831 1348 772 C1517 727 1667 728 1800 763 L1800 1050 L0 1050 Z" fill="#516a84" opacity="0.75"/>
  </g>
  <g filter="url(#soft)" transform="translate(640 575)">
    <rect x="0" y="75" width="640" height="250" rx="42" fill="url(#van)"/>
    <path d="M480 110 L575 110 C610 110 640 152 650 195 L660 260 L480 260 Z" fill="#d8e1ea"/>
    <rect x="72" y="112" width="290" height="88" rx="12" fill="#eef3f8"/>
    <rect x="500" y="136" width="90" height="68" rx="12" fill="#9fb4c9"/>
    <rect x="85" y="223" width="290" height="12" rx="6" fill="#0a2d4d" opacity="0.28"/>
    <circle cx="150" cy="324" r="58" fill="#12263d"/>
    <circle cx="150" cy="324" r="29" fill="#b9c5d2"/>
    <circle cx="540" cy="324" r="58" fill="#12263d"/>
    <circle cx="540" cy="324" r="29" fill="#b9c5d2"/>
    <rect x="55" y="254" width="555" height="18" rx="9" fill="#0a2d4d" opacity="0.18"/>
    <g transform="translate(96 126)">
      <text x="0" y="0" font-family="Arial, sans-serif" font-size="34" font-weight="800" fill="#0a2d4d">3D</text>
      <text x="70" y="0" font-family="Arial, sans-serif" font-size="22" font-weight="700" letter-spacing="3" fill="#5d6978">MEDICAL LOGISTICS</text>
      <path d="M0 25 C58 -4 96 -2 140 25 C182 51 238 51 310 25" stroke="#0a2d4d" stroke-width="9" fill="none" stroke-linecap="round" opacity="0.95"/>
    </g>
  </g>
  <g transform="translate(470 525)" opacity="0.9" filter="url(#soft)">
    <rect x="0" y="0" width="120" height="154" rx="20" fill="#ffffff"/>
    <rect x="18" y="24" width="84" height="54" rx="10" fill="#edf3f8"/>
    <path d="M60 92 v44 M38 114 h44" stroke="#0a2d4d" stroke-width="12" stroke-linecap="round"/>
  </g>
  <rect width="1800" height="1050" fill="#061a30" opacity="0.48"/>
  <rect width="1800" height="1050" fill="url(#sun)" opacity="0.12"/>
</svg>
