<svg width="1920" height="1120" viewBox="0 0 1920 1120" fill="none" xmlns="http://www.w3.org/2000/svg">
<defs>
  <linearGradient id="bg" x1="0" y1="0" x2="1920" y2="1120" gradientUnits="userSpaceOnUse">
    <stop stop-color="#0B3C6F"/>
    <stop offset="0.56" stop-color="#082B50"/>
    <stop offset="1" stop-color="#061D36"/>
  </linearGradient>
  <linearGradient id="glass" x1="0" y1="0" x2="1" y2="1">
    <stop stop-color="#FFFFFF" stop-opacity=".96"/>
    <stop offset="1" stop-color="#DCE8F4" stop-opacity=".70"/>
  </linearGradient>
  <filter id="shadow" x="-15%" y="-15%" width="130%" height="140%">
    <feDropShadow dx="0" dy="28" stdDeviation="22" flood-color="#001B33" flood-opacity=".34"/>
  </filter>
</defs>
<rect width="1920" height="1120" fill="url(#bg)"/>
<circle cx="1480" cy="260" r="420" fill="#2E74B5" opacity=".18"/>
<circle cx="1520" cy="285" r="235" fill="#FFFFFF" opacity=".05"/>
<path d="M0 800C282 712 540 708 826 760C1210 830 1484 736 1920 590V1120H0V800Z" fill="#071F3A" opacity=".72"/>
<path d="M0 904C340 790 640 828 934 874C1245 923 1566 846 1920 702V1120H0V904Z" fill="#06182C" opacity=".82"/>

<!-- city / medical campus silhouette -->
<g opacity=".24">
<rect x="155" y="455" width="120" height="390" rx="6" fill="#D8E7F5"/>
<rect x="305" y="385" width="168" height="460" rx="8" fill="#F4F6F8"/>
<rect x="506" y="500" width="108" height="345" rx="6" fill="#AFC7DE"/>
<rect x="1250" y="430" width="210" height="415" rx="10" fill="#D8E7F5"/>
<rect x="1490" y="510" width="118" height="335" rx="8" fill="#AFC7DE"/>
<rect x="1642" y="440" width="156" height="405" rx="8" fill="#F4F6F8"/>
<g opacity=".55" fill="#0B3C6F">
<rect x="335" y="430" width="28" height="28"/><rect x="386" y="430" width="28" height="28"/><rect x="335" y="490" width="28" height="28"/><rect x="386" y="490" width="28" height="28"/>
<rect x="1294" y="480" width="30" height="30"/><rect x="1354" y="480" width="30" height="30"/><rect x="1294" y="548" width="30" height="30"/><rect x="1354" y="548" width="30" height="30"/>
</g>
</g>

<!-- clean medical logistics van -->
<g filter="url(#shadow)" transform="translate(980 665)">
  <path d="M46 48c0-27 22-49 49-49h420c60 0 111 43 123 102l24 122H46c-25 0-46-21-46-46V94c0-25 21-46 46-46Z" fill="#FFFFFF"/>
  <path d="M62 83h302c17 0 31 14 31 31v69H62V83Z" fill="#EAF0F6"/>
  <path d="M430 88h116c30 0 57 19 68 47l18 48H430V88Z" fill="#0B3C6F"/>
  <path d="M88 108h82v52H88zM199 108h82v52h-82z" fill="#0B3C6F" opacity=".86"/>
  <rect x="78" y="207" width="556" height="42" rx="8" fill="#0B3C6F"/>
  <circle cx="152" cy="252" r="50" fill="#0B3C6F"/><circle cx="152" cy="252" r="22" fill="#F4F6F8"/>
  <circle cx="528" cy="252" r="50" fill="#0B3C6F"/><circle cx="528" cy="252" r="22" fill="#F4F6F8"/>
  <path d="M286 128h32v-32h34v32h32v34h-32v32h-34v-32h-32v-34Z" fill="#2E74B5"/>
  <text x="92" y="197" font-family="Arial, Helvetica, sans-serif" font-size="36" font-weight="800" fill="#0B3C6F">3D MEDICAL LOGISTICS</text>
</g>

<!-- supply staging / healthcare logistics -->
<g filter="url(#shadow)" transform="translate(220 695)">
  <rect width="520" height="300" rx="26" fill="url(#glass)"/>
  <rect x="40" y="46" width="440" height="190" rx="20" fill="#FFFFFF" opacity=".92"/>
  <rect x="72" y="78" width="110" height="90" rx="10" fill="#0B3C6F"/>
  <rect x="210" y="78" width="110" height="90" rx="10" fill="#2E74B5"/>
  <rect x="348" y="78" width="88" height="90" rx="10" fill="#CBD6E1"/>
  <path d="M212 188h84v-30h32v30h84v32h-84v30h-32v-30h-84v-32Z" fill="#0B3C6F"/>
  <rect y="254" width="520" height="46" fill="#0B3C6F"/>
</g>

<path d="M725 970C918 875 1192 850 1488 905" stroke="#2E74B5" stroke-opacity=".44" stroke-width="7" stroke-linecap="round"/>
<path d="M785 1024C982 964 1205 953 1430 994" stroke="#F4F6F8" stroke-opacity=".22" stroke-width="4" stroke-linecap="round"/>
</svg>