<svg xmlns="http://www.w3.org/2000/svg" width="1200" height="800" viewBox="0 0 1200 800">
<defs><linearGradient id="b" x1="0" x2="1"><stop stop-color="#EEF6FC"/><stop offset="1" stop-color="#FFFFFF"/></linearGradient><filter id="s"><feDropShadow dx="0" dy="22" stdDeviation="22" flood-color="#0B3C6F" flood-opacity=".15"/></filter></defs>
<rect width="1200" height="800" rx="36" fill="url(#b)"/>
<rect x="100" y="85" width="1000" height="500" rx="42" fill="white" filter="url(#s)"/>
<g transform="translate(210 145)">
<rect x="0" y="300" width="780" height="35" rx="18" fill="#0B3C6F" opacity=".12"/>
<g><rect x="85" y="35" width="85" height="260" rx="28" fill="#D7E8F6"/><rect x="96" y="140" width="63" height="130" rx="22" fill="#2E74B5" opacity=".72"/><rect x="106" y="0" width="43" height="55" rx="11" fill="#0B3C6F"/></g>
<g><rect x="300" y="0" width="95" height="295" rx="30" fill="#D7E8F6"/><rect x="312" y="140" width="71" height="130" rx="22" fill="#2E74B5" opacity=".6"/><rect x="326" y="-28" width="43" height="62" rx="11" fill="#0B3C6F"/></g>
<g><rect x="535" y="78" width="85" height="218" rx="28" fill="#D7E8F6"/><rect x="547" y="165" width="61" height="105" rx="20" fill="#2E74B5" opacity=".55"/><rect x="556" y="42" width="43" height="55" rx="11" fill="#0B3C6F"/></g>
</g>
<text x="90" y="680" font-family="Arial" font-size="42" font-weight="900" fill="#0B3C6F">Laboratory Logistics</text>
<text x="90" y="725" font-family="Arial" font-size="24" fill="#667383">Time-sensitive support for lab, specimen, and healthcare supply movement.</text></svg>