<svg xmlns="http://www.w3.org/2000/svg" width="1200" height="800" viewBox="0 0 1200 800">
<defs><linearGradient id="b" x1="0" x2="1"><stop stop-color="#EEF6FC"/><stop offset="1" stop-color="#FFFFFF"/></linearGradient><filter id="s"><feDropShadow dx="0" dy="22" stdDeviation="22" flood-color="#0B3C6F" flood-opacity=".15"/></filter></defs>
<rect width="1200" height="800" rx="36" fill="url(#b)"/>
<rect x="85" y="90" width="1030" height="490" rx="42" fill="white" filter="url(#s)"/>
<g transform="translate(150 155)">
<rect x="0" y="250" width="900" height="26" rx="13" fill="#0B3C6F" opacity=".16"/><rect x="0" y="115" width="900" height="26" rx="13" fill="#0B3C6F" opacity=".16"/>
<g fill="#F4F6F8" stroke="#DDE6EF" stroke-width="2"><rect x="35" y="0" width="130" height="100" rx="16"/><rect x="190" y="0" width="130" height="100" rx="16"/><rect x="345" y="0" width="130" height="100" rx="16"/><rect x="500" y="0" width="130" height="100" rx="16"/><rect x="655" y="0" width="130" height="100" rx="16"/><rect x="90" y="140" width="130" height="100" rx="16"/><rect x="245" y="140" width="130" height="100" rx="16"/><rect x="400" y="140" width="130" height="100" rx="16"/><rect x="555" y="140" width="130" height="100" rx="16"/><rect x="710" y="140" width="130" height="100" rx="16"/></g>
<g stroke="#2E74B5" stroke-width="10" stroke-linecap="round"><path d="M100 32v35M82 50h36"/><path d="M255 32v35M237 50h36"/><path d="M410 32v35M392 50h36"/><path d="M565 32v35M547 50h36"/><path d="M720 32v35M702 50h36"/><path d="M155 172v35M137 190h36"/><path d="M310 172v35M292 190h36"/><path d="M465 172v35M447 190h36"/><path d="M620 172v35M602 190h36"/><path d="M775 172v35M757 190h36"/></g>
</g>
<text x="90" y="680" font-family="Arial" font-size="42" font-weight="900" fill="#0B3C6F">Medical Supply Delivery</text>
<text x="90" y="725" font-family="Arial" font-size="24" fill="#667383">Organized movement of healthcare supplies, equipment, and inventory.</text></svg>