<svg width="1200" height="850" viewBox="0 0 1200 850" fill="none" xmlns="http://www.w3.org/2000/svg">
<defs><linearGradient id="b" x1="0" x2="1" y1="0" y2="1"><stop stop-color="#F8FBFE"/><stop offset="1" stop-color="#DDEAF5"/></linearGradient><filter id="s"><feDropShadow dx="0" dy="24" stdDeviation="24" flood-color="#0B3C6F" flood-opacity=".18"/></filter></defs>
<rect width="1200" height="850" rx="44" fill="url(#b)"/>
<rect x="90" y="90" width="1020" height="620" rx="42" fill="#fff" filter="url(#s)"/>
<rect x="135" y="135" width="425" height="500" rx="32" fill="#F4F6F8"/>
<rect x="640" y="130" width="390" height="500" rx="32" fill="#F4F6F8"/>
<g transform="translate(180 205)">
<circle cx="145" cy="68" r="58" fill="#2E74B5"/>
<rect x="72" y="140" width="150" height="225" rx="38" fill="#0B3C6F"/>
<rect x="28" y="208" width="86" height="52" rx="18" fill="#D7E8F6" transform="rotate(-18 28 208)"/>
<rect x="176" y="208" width="86" height="52" rx="18" fill="#D7E8F6" transform="rotate(18 176 208)"/>
<rect x="60" y="352" width="55" height="98" rx="22" fill="#2E74B5"/>
<rect x="180" y="352" width="55" height="98" rx="22" fill="#2E74B5"/>
</g>
<g transform="translate(555 335)" filter="url(#s)">
<rect x="0" y="0" width="240" height="130" rx="28" fill="#FFFFFF"/>
<rect x="36" y="38" width="54" height="54" rx="12" fill="#2E74B5"/>
<path d="M63 51V80M49 65H77" stroke="#fff" stroke-width="9" stroke-linecap="round"/>
<rect x="112" y="44" width="82" height="12" rx="6" fill="#0B3C6F" opacity=".7"/>
<rect x="112" y="70" width="58" height="12" rx="6" fill="#0B3C6F" opacity=".45"/>
</g>
<g transform="translate(770 265)" filter="url(#s)">
<rect x="0" y="0" width="250" height="140" rx="28" fill="#FFFFFF"/>
<rect x="38" y="42" width="54" height="54" rx="12" fill="#2E74B5"/>
<path d="M65 55V84M51 69H79" stroke="#fff" stroke-width="9" stroke-linecap="round"/>
<rect x="114" y="48" width="92" height="12" rx="6" fill="#0B3C6F" opacity=".7"/>
<rect x="114" y="74" width="64" height="12" rx="6" fill="#0B3C6F" opacity=".45"/>
</g>
<path d="M513 380C610 330 670 322 759 327" stroke="#2E74B5" stroke-width="12" stroke-linecap="round" stroke-dasharray="26 24"/>
<text x="126" y="760" fill="#0B3C6F" font-family="Arial" font-weight="900" font-size="42">Professional Medical Handoff</text>
<text x="126" y="805" fill="#68737F" font-family="Arial" font-size="25">Clear communication from pickup to delivery confirmation.</text>
</svg>