<svg width="1200" height="850" viewBox="0 0 1200 850" fill="none" xmlns="http://www.w3.org/2000/svg">
<defs><linearGradient id="b" x1="0" x2="1" y1="0" y2="1"><stop stop-color="#F8FBFE"/><stop offset="1" stop-color="#DDEAF5"/></linearGradient><filter id="s"><feDropShadow dx="0" dy="20" stdDeviation="20" flood-color="#0B3C6F" flood-opacity=".16"/></filter></defs>
<rect width="1200" height="850" rx="44" fill="url(#b)"/>
<rect x="95" y="110" width="1010" height="530" rx="44" fill="#fff" filter="url(#s)"/>
<g transform="translate(170 180)">
<rect x="0" y="0" width="250" height="140" rx="28" fill="#F4F6F8" stroke="#DDE6EF"/>
<rect x="40" y="42" width="58" height="58" rx="14" fill="#2E74B5"/><path d="M69 55V86M53 70H84" stroke="#fff" stroke-width="9" stroke-linecap="round"/>
<rect x="125" y="48" width="84" height="12" rx="6" fill="#0B3C6F" opacity=".65"/><rect x="125" y="74" width="62" height="12" rx="6" fill="#0B3C6F" opacity=".42"/>
<rect x="295" y="0" width="250" height="140" rx="28" fill="#F4F6F8" stroke="#DDE6EF"/>
<rect x="335" y="42" width="58" height="58" rx="14" fill="#2E74B5"/><path d="M364 55V86M348 70H379" stroke="#fff" stroke-width="9" stroke-linecap="round"/>
<rect x="420" y="48" width="84" height="12" rx="6" fill="#0B3C6F" opacity=".65"/><rect x="420" y="74" width="62" height="12" rx="6" fill="#0B3C6F" opacity=".42"/>
<rect x="590" y="0" width="250" height="140" rx="28" fill="#F4F6F8" stroke="#DDE6EF"/>
<rect x="630" y="42" width="58" height="58" rx="14" fill="#2E74B5"/><path d="M659 55V86M643 70H674" stroke="#fff" stroke-width="9" stroke-linecap="round"/>
<rect x="715" y="48" width="84" height="12" rx="6" fill="#0B3C6F" opacity=".65"/><rect x="715" y="74" width="62" height="12" rx="6" fill="#0B3C6F" opacity=".42"/>
</g>
<g transform="translate(170 390)">
<rect x="0" y="0" width="840" height="58" rx="18" fill="#0B3C6F" opacity=".14"/>
<rect x="0" y="100" width="840" height="58" rx="18" fill="#0B3C6F" opacity=".14"/>
<rect x="70" y="-20" width="10" height="300" rx="5" fill="#0B3C6F" opacity=".18"/>
<rect x="365" y="-20" width="10" height="300" rx="5" fill="#0B3C6F" opacity=".18"/>
<rect x="660" y="-20" width="10" height="300" rx="5" fill="#0B3C6F" opacity=".18"/>
</g>
<text x="126" y="730" fill="#0B3C6F" font-family="Arial" font-weight="900" font-size="42">Medical Supply Movement</text>
<text x="126" y="775" fill="#68737F" font-family="Arial" font-size="25">Organized delivery support for healthcare supplies, equipment, and inventory.</text>
</svg>