<svg width="1200" height="850" viewBox="0 0 1200 850" fill="none" xmlns="http://www.w3.org/2000/svg">
<defs><linearGradient id="b" x1="0" x2="1" y1="0" y2="1"><stop stop-color="#F8FBFE"/><stop offset="1" stop-color="#DDEAF5"/></linearGradient><filter id="s"><feDropShadow dx="0" dy="24" stdDeviation="24" flood-color="#0B3C6F" flood-opacity=".18"/></filter></defs>
<rect width="1200" height="850" rx="44" fill="url(#b)"/>
<rect x="90" y="120" width="1020" height="430" rx="44" fill="#fff" filter="url(#s)"/>
<rect x="140" y="365" width="920" height="16" rx="8" fill="#0B3C6F" opacity=".15"/>
<g transform="translate(185 250)" filter="url(#s)">
<rect x="0" y="95" width="590" height="155" rx="34" fill="#FFFFFF"/>
<rect x="90" y="42" width="275" height="128" rx="30" fill="#FFFFFF"/>
<rect x="390" y="65" width="158" height="185" rx="28" fill="#FFFFFF"/>
<rect x="125" y="70" width="95" height="55" rx="16" fill="#D7E8F6"/>
<rect x="240" y="70" width="95" height="55" rx="16" fill="#D7E8F6"/>
<rect x="46" y="138" width="90" height="58" rx="14" fill="#2E74B5"/>
<path d="M91 151V184M74 168H108" stroke="#fff" stroke-width="9" stroke-linecap="round"/>
<rect x="160" y="151" width="160" height="13" rx="7" fill="#0B3C6F" opacity=".7"/>
<rect x="160" y="177" width="108" height="13" rx="7" fill="#0B3C6F" opacity=".42"/>
<circle cx="140" cy="258" r="42" fill="#0B3C6F"/><circle cx="140" cy="258" r="18" fill="#fff"/>
<circle cx="476" cy="258" r="42" fill="#0B3C6F"/><circle cx="476" cy="258" r="18" fill="#fff"/>
</g>
<g transform="translate(800 220)">
<rect x="0" y="0" width="210" height="230" rx="28" fill="#F4F6F8" stroke="#DDE6EF"/>
<rect x="44" y="54" width="122" height="86" rx="16" fill="#FFFFFF"/>
<rect x="70" y="76" width="70" height="10" rx="5" fill="#0B3C6F" opacity=".6"/>
<rect x="70" y="99" width="50" height="10" rx="5" fill="#0B3C6F" opacity=".35"/>
<path d="M105 170V198M91 184H119" stroke="#2E74B5" stroke-width="9" stroke-linecap="round"/>
</g>
<text x="126" y="710" fill="#0B3C6F" font-family="Arial" font-weight="900" font-size="42">Scheduled Route Support</text>
<text x="126" y="755" fill="#68737F" font-family="Arial" font-size="25">Reliable recurring logistics for healthcare teams and medical suppliers.</text>
</svg>