<svg xmlns="http://www.w3.org/2000/svg" width="1200" height="720" viewBox="0 0 1200 720">
<rect width="1200" height="720" rx="32" fill="#F4F6F8"/>
<g opacity=".75" stroke-linecap="round">
<path d="M-40 400C150 340 280 360 440 318C600 275 720 210 885 240C1015 263 1085 310 1260 280" stroke="#CCDCE9" stroke-width="20"/>
<path d="M250 -50C330 130 400 230 500 320C620 430 715 505 795 760" stroke="#CCDCE9" stroke-width="15"/>
<path d="M950 -40C890 125 845 215 770 300C690 390 585 460 480 760" stroke="#CCDCE9" stroke-width="15"/>
</g>
<path d="M600 -30C585 145 584 250 610 352C642 480 620 575 600 760" stroke="#2E74B5" stroke-width="16" stroke-linecap="round"/>
<path d="M600 -30C585 145 584 250 610 352C642 480 620 575 600 760" stroke="white" stroke-width="5" stroke-linecap="round"/>
<path d="M-40 395C175 350 335 355 500 370C640 383 795 385 930 365C1045 350 1120 335 1260 320" stroke="#2E74B5" stroke-width="16" stroke-linecap="round"/>
<path d="M-40 395C175 350 335 355 500 370C640 383 795 385 930 365C1045 350 1120 335 1260 320" stroke="white" stroke-width="5" stroke-linecap="round"/>
<g font-family="Arial" font-size="23" font-weight="900">
<rect x="545" y="300" width="116" height="48" rx="24" fill="#2E74B5"/><text x="580" y="332" fill="white">Atlanta</text>
<rect x="500" y="390" width="122" height="46" rx="23" fill="#0B3C6F"/><text x="527" y="421" fill="white">Decatur</text>
<rect x="520" y="485" width="145" height="46" rx="23" fill="#0B3C6F"/><text x="546" y="516" fill="white">Ellenwood</text>
<rect x="690" y="555" width="164" height="46" rx="23" fill="#0B3C6F"/><text x="715" y="586" fill="white">Stockbridge</text>
<rect x="390" y="555" width="150" height="46" rx="23" fill="#0B3C6F"/><text x="415" y="586" fill="white">Jonesboro</text>
<rect x="770" y="410" width="130" height="46" rx="23" fill="#0B3C6F"/><text x="797" y="441" fill="white">Conyers</text>
<rect x="735" y="620" width="170" height="46" rx="23" fill="#0B3C6F"/><text x="765" y="651" fill="white">McDonough</text>
</g>
</svg>